<svg width="70" height="16" viewBox="0 0 70 16" fill="none" xmlns="http://www.w3.org/2000/svg">
<path d="M61.9619 0C63.2102 0 64.3978 0.290404 65.4636 0.809885C65.6307 0.886455 65.7989 0.978097 65.9655 1.06982L65.2348 1.72712L64.1393 0.58089L62.2516 2.26183L61.14 1.05435L57.6688 4.1874L59.8912 6.64791L59.0236 7.41185L61.2162 9.87236L60.3485 10.636L63.4849 14.1358L65.3411 12.424L66.9556 14.2584C66.6356 14.503 66.2855 14.748 65.9054 14.9616C64.7481 15.6187 63.4082 16 61.9773 16C57.5772 16 54.0001 12.4094 54.0001 7.99313C53.9845 3.60674 57.5623 0 61.9619 0ZM60.5002 7.50374L62.4033 5.79201L64.1087 7.70226L62.2053 9.41382L60.5002 7.50374ZM61.8555 10.8048L63.7431 9.07796L65.4636 10.9881L63.5604 12.6999L61.8555 10.8048ZM59.146 4.24873L61.0486 2.537L62.7536 4.44725L60.8505 6.1589L59.146 4.24873ZM62.6317 3.33149L64.0476 2.04784L65.3268 3.46916L63.9108 4.76798L62.6317 3.33149ZM65.1591 9.21522L66.5746 7.93149L67.8537 9.36765L66.4377 10.6522L65.1591 9.21522ZM66.4073 12.1039L67.8234 10.8199L69.1014 12.2412L67.6859 13.5398L66.4073 12.1039ZM66.986 5.5016L67.9297 4.6457L68.782 5.59356L67.8384 6.44915L66.986 5.5016ZM65.768 2.67435L66.7118 1.80344L67.5647 2.76607L66.6202 3.6219L65.768 2.67435ZM68.1885 8.32909L69.1323 7.47327L70 8.42081L69.0412 9.2764L68.1885 8.32909ZM63.9411 6.20477L65.3571 4.92103L66.6357 6.34204L65.2202 7.62601L63.9411 6.20477Z" fill="#0C4BA0"/>
<mask id="mask0_9352_462" style="mask-type:alpha" maskUnits="userSpaceOnUse" x="0" y="4" width="8" height="7">
<path d="M0 4V11H8V4H0Z" fill="white"/>
</mask>
<g mask="url(#mask0_9352_462)">
<path d="M4.0148 6.07277H3.94576L2.64965 11H1.59026L0 4H1.09917L2.19861 9.22317H2.26727L3.5431 4H4.41698L5.78141 9.22317H5.85011L6.85147 4H8L6.40933 11H5.34914L4.0148 6.07277Z" fill="#0C4BA0"/>
</g>
<path d="M9.97908 8.44984H12.1139C12.0676 7.24802 11.5918 6.76758 11.0885 6.76758C10.5197 6.76758 10.0812 7.30558 9.97908 8.44984ZM12.8597 10.603V11.4733C12.4402 11.7709 11.8811 12 11.2093 12C9.64332 12 9 10.8093 9 9.00048C9 7.25945 9.71779 6 11.1164 6C12.2816 6 13 6.92802 13 8.79382V9.2175H9.96038C9.96038 10.591 10.417 11.198 11.3777 11.198C11.8811 11.198 12.3473 10.9801 12.8597 10.603Z" fill="#0C4BA0"/>
<path d="M15.9581 10.1082C16.2558 10.2532 16.5816 10.2747 16.8146 10.2747C17.5028 10.2747 18.0231 9.7973 18.0231 8.11893C18.0231 6.80281 17.5953 6.37789 16.9723 6.37789C16.5999 6.37789 16.3303 6.49225 15.9581 6.71979V10.1082H15.9581ZM15.9679 5.95314C16.2462 5.78787 16.7206 5.56949 17.2231 5.56949C18.3767 5.56949 19 6.46068 19 8.11893C19 10.057 18.1627 11 16.8146 11C16.3212 11 15.5584 10.8238 15 10.4914V3.25871L15.9679 3V5.95314H15.9679Z" fill="#0C4BA0"/>
<path d="M23.51 9.51863H23.561L25.7378 4H27V11H25.9012V5.92525H25.8095L23.7337 11H23.0832L21.007 6.04389H20.9157V11H20V4H21.2314L23.51 9.51863Z" fill="#0C4BA0"/>
<path d="M31.8481 9.00013C31.8481 7.45459 31.2454 6.80229 30.4999 6.80229C29.7764 6.80229 29.1509 7.4546 29.1509 9.00013C29.1509 10.5689 29.7217 11.198 30.4999 11.198C31.278 11.198 31.8481 10.5689 31.8481 9.00013ZM28 9.00013C28 6.99577 29.0529 6 30.4999 6C31.9477 6 33 6.99577 33 9.00013C33 10.9576 32.0023 12 30.4999 12C28.9977 12 28 10.9576 28 9.00013Z" fill="#0C4BA0"/>
<path d="M34 6.72315C34.4286 6.45907 35.3339 6 36.4291 6C37.5721 6 38 6.45907 38 7.46458V11H37.01V7.68947C37.01 6.91821 36.6392 6.78152 36.1527 6.78152C35.7722 6.78152 35.2858 6.95754 34.9907 7.13327V11H34V6.72315H34Z" fill="#0C4BA0"/>
<path d="M39.9787 8.44984H42.1134C42.0676 7.24802 41.5915 6.76758 41.0881 6.76758C40.5192 6.76758 40.0816 7.30558 39.9787 8.44984ZM42.8591 10.603V11.4733C42.4398 11.7709 41.8804 12 41.209 12C39.6437 12 39 10.8093 39 9.00048C39 7.25945 39.7175 6 41.1161 6C42.2818 6 43 6.92802 43 8.79382V9.2175H39.9603C39.9603 10.591 40.4172 11.198 41.3775 11.198C41.8804 11.198 42.3473 10.9801 42.8591 10.603Z" fill="#0C4BA0"/>
<path d="M47.8491 6H49L47.0535 10.9293C46.5151 12.29 45.8599 13 44.6235 13V12.192C45.3552 12.192 45.8061 11.6594 46.0648 10.9293L44 6H45.1831L46.5594 9.62833H46.6239L47.8491 6Z" fill="#0C4BA0"/>
</svg>
