<svg width="64" height="64" viewBox="0 0 64 64" fill="none" xmlns="http://www.w3.org/2000/svg">
<path fill-rule="evenodd" clip-rule="evenodd" d="M0 10C0 4.47715 4.47715 0 10 0H54C59.5228 0 64 4.47715 64 10V54C64 59.5228 59.5228 64 54 64H10C4.47715 64 0 59.5228 0 54V10ZM32 16C40.8 16 48 23.2 48 32C48 40 42.2 46.8 34.2 48V36.6H38L38.8 32H34.4V29C34.4 27.8 35 26.6 37 26.6H39V22.6C39 22.6 37.2 22.2 35.4 22.2C31.8 22.2 29.4 24.4 29.4 28.4V32H25.4V36.6H29.4V47.8C21.8 46.6 16 40 16 32C16 23.2 23.2 16 32 16Z" fill="white"/>
</svg>
