<svg width="20" height="14" viewBox="0 0 20 14" fill="none" xmlns="http://www.w3.org/2000/svg">
<g clip-path="url(#clip0_9352_478)">
<path d="M13 0C9.10127 0 6 3.14557 6 7C6 10.8987 9.14558 14 13 14C16.8544 14 20 10.8544 20 7C20 3.14557 16.8544 0 13 0ZM13 9.61393C11.5823 9.61393 10.3861 8.41772 10.3861 7C10.3861 5.58228 11.5823 4.38607 13 4.38607C14.4177 4.38607 15.6139 5.58228 15.6139 7C15.5697 8.41772 14.4177 9.61393 13 9.61393Z" fill="#8B3FFD"/>
<path d="M6 2V12H3.375L0 2H6Z" fill="#8B3FFD"/>
</g>
<defs>
<clipPath id="clip0_9352_478">
<rect width="20" height="14" fill="white"/>
</clipPath>
</defs>
</svg>
