<svg width="152" height="26" viewBox="0 0 152 26" fill="none" xmlns="http://www.w3.org/2000/svg">
<path fill-rule="evenodd" clip-rule="evenodd" d="M133.25 17.6005C131.997 18.4793 130.438 19 128.75 19C124.608 19 121.25 15.866 121.25 12C121.25 8.13401 124.608 5 128.75 5C130.438 5 131.997 5.52072 133.25 6.39949C134.503 5.52072 136.062 5 137.75 5C141.892 5 145.25 8.13401 145.25 12C145.25 15.866 141.892 19 137.75 19C136.062 19 134.503 18.4793 133.25 17.6005Z" fill="#ED0006"/>
<path fill-rule="evenodd" clip-rule="evenodd" d="M133.25 17.6005C135.072 16.3234 136.25 14.2901 136.25 12C136.25 9.70986 135.072 7.67658 133.25 6.39949C134.503 5.52072 136.062 5 137.75 5C141.892 5 145.25 8.13401 145.25 12C145.25 15.866 141.892 19 137.75 19C136.062 19 134.503 18.4793 133.25 17.6005Z" fill="#F9A000"/>
<path fill-rule="evenodd" clip-rule="evenodd" d="M132.75 17.3622C134.278 16.0781 135.25 14.1525 135.25 12.0001C135.25 9.84758 134.278 7.92201 132.75 6.63794C131.222 7.92201 130.25 9.84758 130.25 12.0001C130.25 14.1525 131.222 16.0781 132.75 17.3622Z" fill="#FF5E00"/>
<path fill-rule="evenodd" clip-rule="evenodd" d="M81.9243 16H79.8736L78.3357 9.60085C78.2627 9.30649 78.1078 9.04626 77.8798 8.92361C77.3109 8.61538 76.6839 8.37008 76 8.24637V8H79.3036C79.7596 8 80.1015 8.37008 80.1585 8.79989L80.9564 13.4158L83.0062 8H85L81.9243 16ZM87.1937 16H85L86.8063 8H89L87.1937 16ZM90.9121 10.3283C90.9703 9.91047 91.32 9.67153 91.728 9.67153C92.3691 9.61154 93.0675 9.73152 93.6503 10.0294L94 8.35892C93.4172 8.11999 92.7761 8 92.1943 8C90.272 8 88.8732 9.0747 88.8732 10.5663C88.8732 11.7009 89.864 12.2967 90.5634 12.6557C91.32 13.0136 91.6115 13.2525 91.5532 13.6104C91.5532 14.1472 90.9703 14.3862 90.3885 14.3862C89.6892 14.3862 88.9898 14.2072 88.3497 13.9083L88 15.5798C88.6994 15.8777 89.456 15.9977 90.1554 15.9977C92.3108 16.0566 93.6503 14.983 93.6503 13.3714C93.6503 11.342 90.9121 11.2231 90.9121 10.3283ZM101 16L99.4251 8H97.7335C97.3833 8 97.0331 8.24637 96.9163 8.61538L94 16H96.0418L96.4494 14.8311H98.9582L99.1916 16H101ZM98.2865 10L99 13H97L98.2865 10Z" fill="#0C4BA0"/>
<g clip-path="url(#clip0_9352_482)">
<path fill-rule="evenodd" clip-rule="evenodd" d="M37 0H63V26H37V0Z" fill="white"/>
<path fill-rule="evenodd" clip-rule="evenodd" d="M49.5346 18.0589C50.313 17.3539 50.9344 16.4953 51.359 15.538C51.7836 14.5807 52.0019 13.5459 52 12.5C52.0019 11.4541 51.7836 10.4193 51.359 9.46197C50.9345 8.50469 50.313 7.64605 49.5346 6.94114C48.2035 5.73501 46.4377 5 44.4999 5C40.358 5 37 8.35782 37 12.5C37 16.642 40.358 20 44.4999 20C46.4377 20 48.2036 19.265 49.5346 18.0589Z" fill="#3A9BD9"/>
<path fill-rule="evenodd" clip-rule="evenodd" d="M55.4148 5C53.455 5 51.6688 5.735 50.3228 6.94112C50.0483 7.18729 49.7924 7.45267 49.557 7.73518H51.0881C51.2983 7.98734 51.4916 8.25263 51.6668 8.52937H48.9787C48.8169 8.78529 48.6709 9.05049 48.5414 9.32357H52.1034C52.226 9.58202 52.3335 9.84714 52.4253 10.1176H48.2202C48.132 10.3782 48.0585 10.6432 48 10.9117H52.6457C52.7594 11.4337 52.8166 11.9661 52.8164 12.4999C52.8164 13.3326 52.6787 14.1337 52.4254 14.8821H48.2202C48.3117 15.1527 48.4189 15.4178 48.5414 15.6763H52.1034C51.9742 15.9494 51.8283 16.2146 51.6667 16.4705H48.9787C49.1537 16.7472 49.3468 17.0125 49.5569 17.2647H51.0881C50.853 17.5473 50.5973 17.8128 50.3228 18.0589C51.6688 19.265 53.455 20 55.4148 20C59.6037 20 63 16.6421 63 12.5001C63 8.35779 59.6037 5 55.4148 5Z" fill="#CC2131"/>
<path fill-rule="evenodd" clip-rule="evenodd" d="M62 17.2458C62 17.1101 62.1091 17 62.244 17C62.3786 17 62.4877 17.1101 62.4877 17.2458C62.4877 17.3812 62.3786 17.4913 62.244 17.4913C62.1791 17.491 62.1169 17.4651 62.0712 17.419C62.0254 17.373 61.9998 17.3107 62 17.2458ZM62.2439 17.4322C62.3461 17.4322 62.4291 17.349 62.4291 17.2456C62.4291 17.1423 62.3461 17.0588 62.2439 17.0588C62.1414 17.0588 62.0584 17.1423 62.0584 17.2456C62.0584 17.349 62.1415 17.4322 62.2439 17.4322ZM62.211 17.3534H62.1609V17.1373H62.2516C62.2703 17.1373 62.2895 17.1379 62.3061 17.1484C62.3147 17.1545 62.3217 17.1626 62.3264 17.172C62.3312 17.1814 62.3336 17.1918 62.3334 17.2023C62.3334 17.2266 62.3193 17.2495 62.2963 17.2582L62.3359 17.3533H62.2803L62.2477 17.2679H62.2111V17.3534V17.2312H62.2387C62.2487 17.2312 62.2601 17.2317 62.2691 17.2267C62.2731 17.224 62.2764 17.2203 62.2786 17.2159C62.2808 17.2116 62.2819 17.2068 62.2818 17.2019C62.2816 17.1976 62.2804 17.1933 62.2783 17.1895C62.2762 17.1858 62.2732 17.1825 62.2696 17.1801C62.261 17.1748 62.247 17.1762 62.2375 17.1762H62.2112V17.3534H62.211Z" fill="#CC2131"/>
<path fill-rule="evenodd" clip-rule="evenodd" d="M60.016 14.6486C60.016 14.5129 60.1251 14.4028 60.2597 14.4028C60.3943 14.4028 60.5035 14.5129 60.5035 14.6486C60.5035 14.7843 60.3943 14.8941 60.2597 14.8941C60.1251 14.8941 60.016 14.7841 60.016 14.6486ZM60.2596 14.835C60.3618 14.835 60.4448 14.7515 60.4448 14.6484C60.4448 14.5451 60.3618 14.4616 60.2596 14.4616C60.1571 14.4616 60.0744 14.5451 60.0744 14.6484C60.0744 14.7515 60.1572 14.835 60.2596 14.835ZM60.2267 14.7562H60.1766V14.5404H60.2673C60.286 14.5404 60.3054 14.5407 60.3218 14.5515C60.3304 14.5575 60.3374 14.5655 60.3421 14.5749C60.3469 14.5843 60.3493 14.5946 60.3491 14.6051C60.3491 14.6297 60.3351 14.6524 60.3121 14.661L60.3516 14.7561H60.2963L60.2634 14.6707H60.2268V14.7562V14.634H60.2545C60.2647 14.634 60.276 14.6348 60.2848 14.6298C60.2888 14.627 60.292 14.6233 60.2942 14.619C60.2964 14.6147 60.2975 14.6099 60.2975 14.605C60.2974 14.6006 60.2962 14.5963 60.2941 14.5925C60.292 14.5886 60.289 14.5853 60.2853 14.5829C60.2767 14.5779 60.2627 14.579 60.2535 14.579H60.2269V14.7562H60.2267ZM43.9889 14.8941H43.0493L43.6077 11.9298L42.322 14.8941H41.4652L41.3086 11.9468L40.7484 14.8941H39.8955L40.6243 11.0381H42.0905L42.1681 13.4253L43.2018 11.0381H44.7297L43.9889 14.8941ZM54.4899 14.8556C54.2328 14.9267 54.0318 14.9573 53.8146 14.9573C53.3339 14.9573 53.0714 14.7144 53.0714 14.2687C53.0714 14.1805 53.0811 14.0866 53.0991 13.9874L53.1562 13.6808L53.2002 13.4326L53.6358 11.038H54.5702L54.4348 11.7581H54.9143L54.7855 12.5205H54.304L54.0563 13.8289C54.0472 13.8716 54.0418 13.9151 54.0403 13.9588C54.0403 14.1208 54.1375 14.1912 54.3609 14.1912C54.4679 14.1912 54.5508 14.1815 54.6144 14.1619L54.4899 14.8556ZM57.2342 11.7839C57.1555 11.7526 57.137 11.7526 57.1278 11.75C57.078 11.739 57.0515 11.7325 57.0469 11.7317C57.0157 11.7262 56.984 11.7236 56.9523 11.7239C56.6438 11.7239 56.4214 11.8622 56.1338 12.233L56.2168 11.7578H55.3658L54.7931 14.8939H55.7334C56.0698 12.976 56.2138 12.6401 56.6649 12.6401C56.6989 12.6401 56.7381 12.6428 56.7837 12.6481L56.8935 12.6706L57.2342 11.7839ZM50.765 12.7489C50.765 13.145 50.9866 13.4179 51.4889 13.6229C51.8739 13.7805 51.9334 13.8266 51.9334 13.969C51.9334 14.1642 51.7637 14.2523 51.3878 14.2523C51.104 14.2523 50.8403 14.2138 50.5358 14.1282L50.4054 14.8516L50.4475 14.8587L50.6216 14.8908C50.6777 14.9005 50.7604 14.9099 50.8701 14.9182C51.0961 14.9359 51.2711 14.9442 51.3944 14.9442C52.3974 14.9442 52.8607 14.6131 52.8607 13.8978C52.8607 13.4674 52.667 13.215 52.1907 13.025C51.7921 12.8662 51.746 12.831 51.746 12.6846C51.746 12.5156 51.9041 12.4288 52.2112 12.4288C52.3981 12.4288 52.6527 12.4464 52.8943 12.4758L53.0297 11.7499C52.7837 11.7162 52.4103 11.6885 52.1933 11.6885C51.1299 11.6887 50.7618 12.1705 50.765 12.7489ZM47.0435 14.8941H46.2626L46.2809 14.569C46.0431 14.8264 45.7261 14.9483 45.2952 14.9483C44.7861 14.9483 44.4366 14.5989 44.4366 14.0918C44.4366 13.3278 45.0437 12.8825 46.0872 12.8825C46.1941 12.8825 46.33 12.891 46.47 12.9067C46.4991 12.8036 46.5071 12.7591 46.5071 12.703C46.5071 12.4954 46.3432 12.4177 45.9044 12.4177C45.6361 12.4177 45.3329 12.4517 45.1235 12.5051L44.9934 12.5384L44.9091 12.5587L45.0394 11.8536C45.5078 11.7328 45.817 11.687 46.1643 11.687C46.9719 11.687 47.3987 12.0056 47.3987 12.607C47.3987 12.7617 47.3845 12.8792 47.3223 13.2282L47.1259 14.3408L47.0929 14.5404L47.0689 14.6998L47.0528 14.809L47.0435 14.8941ZM46.358 13.4969C46.2883 13.4883 46.2182 13.4839 46.148 13.484C45.6155 13.484 45.3457 13.6444 45.3457 13.9611C45.3457 14.1562 45.4773 14.2809 45.6828 14.2809C46.0658 14.281 46.3418 13.9607 46.358 13.4969ZM50.126 14.8264C49.8122 14.9115 49.4884 14.9543 49.1632 14.9536C48.1127 14.9527 47.5652 14.4709 47.5652 13.5486C47.5652 12.4721 48.2618 11.6795 49.2073 11.6795C49.9809 11.6795 50.4749 12.1234 50.4749 12.8194C50.4749 13.0505 50.4411 13.2757 50.3595 13.5936H48.4912C48.4855 13.6262 48.4825 13.6591 48.4822 13.6921C48.4822 14.0556 48.7607 14.2411 49.3065 14.2411C49.6421 14.2411 49.9454 14.1797 50.2822 14.0427L50.126 14.8264ZM49.6256 12.9604C49.6307 12.8951 49.6334 12.8417 49.6334 12.8004C49.6334 12.5457 49.4687 12.3963 49.189 12.3963C48.8901 12.3963 48.6763 12.5967 48.5896 12.9585L49.6256 12.9604ZM60.1551 13.4722C60.0144 14.5154 59.2912 14.9781 58.3299 14.9781C57.2669 14.9781 56.8375 14.3285 56.8375 13.5325C56.8375 12.4211 57.5647 11.668 58.6878 11.668C59.6626 11.668 60.1801 12.2873 60.1801 13.0834C60.1801 13.2771 60.1799 13.2899 60.1551 13.4722ZM59.1874 13.071C59.1874 12.7429 59.0552 12.4332 58.67 12.4332C58.1904 12.4332 57.8933 13.0042 57.8933 13.5083C57.8933 13.9334 58.097 14.2191 58.4328 14.213C58.6365 14.213 59.0708 13.9335 59.1568 13.4454C59.1769 13.3316 59.1874 13.2067 59.1874 13.071Z" fill="white"/>
</g>
<g clip-path="url(#clip1_9352_482)">
<path fill-rule="evenodd" clip-rule="evenodd" d="M25.2598 8.54419H20.0198C20.3015 10.2964 21.9918 11.9355 23.8512 11.9355H28.0207C28.077 11.7659 28.077 11.5398 28.077 11.3703C28.077 9.78767 26.8374 8.54419 25.2598 8.54419Z" fill="url(#paint0_linear_9352_482)"/>
<path fill-rule="evenodd" clip-rule="evenodd" d="M20.4705 12.2181V16.4573H23.006V14.1964H25.2598C26.4994 14.1964 27.5699 13.3486 27.908 12.2181H20.4705Z" fill="#319B17"/>
<path fill-rule="evenodd" clip-rule="evenodd" d="M11.4554 8.54419V16.4572H13.7092C13.7092 16.4572 14.2727 16.4572 14.5544 15.892C16.0757 12.8398 16.5264 11.9355 16.5264 11.9355H16.8082V16.4572H19.3437V8.54419H17.0899C17.0899 8.54419 16.5264 8.60071 16.2447 9.10941C14.9488 11.7094 14.2727 13.0659 14.2727 13.0659H13.9909V8.54419H11.4554Z" fill="#319B17"/>
<path fill-rule="evenodd" clip-rule="evenodd" d="M0.75 16.4572V8.54419H3.2855C3.2855 8.54419 4.01797 8.54419 4.41238 9.67462C5.42658 12.6703 5.53927 13.0659 5.53927 13.0659C5.53927 13.0659 5.76465 12.3311 6.66616 9.67462C7.06057 8.54419 7.79304 8.54419 7.79304 8.54419H10.3285V16.4572H7.79304V12.2181H7.51132L6.10271 16.4572H4.97583L3.56722 12.2181H3.2855V16.4572H0.75Z" fill="#319B17"/>
</g>
<defs>
<linearGradient id="paint0_linear_9352_482" x1="20.0052" y1="10.2398" x2="28.077" y2="10.2398" gradientUnits="userSpaceOnUse">
<stop stop-color="#00B4E6"/>
<stop offset="1" stop-color="#088CCB"/>
</linearGradient>
<clipPath id="clip0_9352_482">
<rect width="26" height="26" fill="white" transform="translate(37)"/>
</clipPath>
<clipPath id="clip1_9352_482">
<rect width="27.6087" height="7.91304" fill="white" transform="translate(0.75 8.54419)"/>
</clipPath>
</defs>
</svg>
